<svg xmlns="http://www.w3.org/2000/svg" viewBox="0 0 512 512"><path d="M256 0C187.615 0 123.333 26.625 74.979 74.979 26.625 123.333 0 187.615 0 256s26.625 132.667 74.979 181.021C123.333 485.375 187.615 512 256 512c141.156 0 256-114.844 256-256S397.156 0 256 0zm10.667 21.859c120.897 5.471 218.316 102.576 223.76 223.474H383.563c-5.146-62.081-54.813-111.667-116.896-116.82V21.859zm96 234.141c0 58.813-47.854 106.667-106.667 106.667-28.479 0-55.271-11.094-75.427-31.24-20.146-20.156-31.24-46.948-31.24-75.427s11.094-55.271 31.24-75.427c20.156-20.146 46.948-31.24 75.427-31.24 58.813 0 106.667 47.855 106.667 106.667zM245.333 21.573v106.865c-26.635 2.177-51.604 12.521-71.99 29.823L97.771 82.688c40.719-37.25 92.427-58.667 147.562-61.115zM21.333 256c0-59.102 21.928-114.699 61.555-158.029l75.428 75.428C138.738 196.487 128 225.406 128 256c0 30.604 10.667 59.573 30.26 82.656l-75.573 75.573C43.042 370.896 21.333 315.115 21.333 256zM256 490.667c-59.102 0-114.699-21.928-158.029-61.555l75.428-75.428C196.487 373.262 225.406 384 256 384c66.983 0 122.01-51.734 127.46-117.333h106.667c-5.635 124.429-108.331 224-234.127 224z"/></svg>