<svg xmlns="http://www.w3.org/2000/svg" viewBox="0 0 480 480"><path d="M32 400v-28.88l73.12-80.48c9.031 7.5 22.209 7.193 30.88-.72l56.56 42.4c2.815 12.952 15.597 21.171 28.549 18.356A24 24 0 0 0 240 328a20.032 20.032 0 0 0-.48-4.4l62.72-69.68A25.125 25.125 0 0 0 312 256a23.998 23.998 0 0 0 15.44-5.76l58.64 52.08A24.402 24.402 0 0 0 384 312c0 13.255 10.745 24 24 24s24-10.745 24-24-10.745-24-24-24a24.005 24.005 0 0 0-10.88 2.72L336 236.08a23.556 23.556 0 0 0 0-4.08c0-13.255-10.745-24-24-24s-24 10.745-24 24c.029 3.766.962 7.47 2.72 10.8l-59.84 66.48A23.997 23.997 0 0 0 216 304a23.999 23.999 0 0 0-20.08 10.96L144 275.68a18.546 18.546 0 0 0 0-3.68c0-13.255-10.745-24-24-24s-24 10.745-24 24c-.003 1.48.158 2.956.48 4.4L32 347.28v-88l77.2-70.16A24.477 24.477 0 0 0 120 192c13.255 0 24-10.745 24-24a20.77 20.77 0 0 0-.48-4.48L203.92 96c1.357.118 2.723.118 4.08 0a24 24 0 0 0 17.12-7.2l64 21.28c3.728 12.72 17.061 20.009 29.781 16.281 11.192-3.28 18.406-14.132 17.099-25.721l56-35.04c9.88 8.836 25.053 7.989 33.888-1.892s7.989-25.053-1.892-33.888-25.053-7.989-33.888 1.892A23.998 23.998 0 0 0 384 48a24.152 24.152 0 0 0 0 3.36L328 86.4c-9.771-8.956-24.953-8.295-33.909 1.476a24 24 0 0 0-3.931 5.804L232 74.16c.039-.719.039-1.44 0-2.16.087-13.255-10.587-24.07-23.842-24.157-13.255-.087-24.07 10.587-24.157 23.842a24.001 24.001 0 0 0 5.759 15.755l-54.96 61.84A23.516 23.516 0 0 0 120 144c-13.255 0-24 10.745-24 24a23.29 23.29 0 0 0 2.16 9.76L32 237.92V0H16v16H0v16h16v80H0v16h16v80H0v16h16v80H0v16h16v88a8 8 0 0 0 8 8h88v16h16v-16h80v16h16v-16h80v16h16v-16h80v16h16v-16h64v-16H32zm376-96a8 8 0 1 1 0 16 8 8 0 0 1 0-16zm-96-80a8 8 0 1 1 0 16 8 8 0 0 1 0-16zm-96 96a8 8 0 1 1 0 16 8 8 0 0 1 0-16zm-96-56a8 8 0 1 1 0 16 8 8 0 0 1 0-16zM408 40a8 8 0 1 1 0 16 8 8 0 0 1 0-16zm-96 56a8 8 0 1 1 0 16 8 8 0 0 1 0-16zM208 64a8 8 0 1 1 0 16 8 8 0 0 1 0-16zm-88 96a8 8 0 1 1 0 16 8 8 0 0 1 0-16zM152 464h16v16h-16zM184 464h16v16h-16zM216 464h16v16h-16zM248 464h16v16h-16zM280 464h16v16h-16zM312 464h16v16h-16z"/></svg>