<svg aria-hidden="true" style="position:absolute;width:0;height:0" xmlns="http://www.w3.org/2000/svg" overflow="hidden"><defs><symbol id="icon-conversation" viewBox="0 0 32 32"><path d="M21.625 19.938a.625.625 0 0 0-.625.625v4.313a3.129 3.129 0 0 1-3.125 3.125h-6.748a.625.625 0 0 0-.625.625l-.001 1.243-1.492-1.492a.626.626 0 0 0-.573-.375H4.375a3.129 3.129 0 0 1-3.125-3.125v-9.625a3.129 3.129 0 0 1 3.125-3.125h6.313a.625.625 0 0 0 0-1.25H4.375A4.38 4.38 0 0 0 0 15.252v9.625a4.38 4.38 0 0 0 4.375 4.375h3.741l2.567 2.567a.623.623 0 0 0 .685.134l-.004.002a.626.626 0 0 0 .386-.577l.002-2.125h6.123a4.38 4.38 0 0 0 4.375-4.375v-4.313a.625.625 0 0 0-.625-.625z"/><path d="M22.916 0h-1.582c-5.009 0-9.084 4.075-9.084 9.084s4.075 9.084 9.084 9.084h1.582a9.07 9.07 0 0 0 2.306-.296l2.337 2.335a.625.625 0 0 0 1.067-.442v-3.616a9.173 9.173 0 0 0 2.388-2.944 8.987 8.987 0 0 0 .987-4.122c0-5.009-4.075-9.084-9.084-9.084zm4.708 15.346a.624.624 0 0 0-.249.499v2.412l-1.529-1.529a.623.623 0 0 0-.63-.154l.004-.001a7.823 7.823 0 0 1-2.304.345h-1.582c-4.32 0-7.834-3.514-7.834-7.834s3.514-7.834 7.834-7.834h1.582c4.32 0 7.834 3.514 7.834 7.834a7.776 7.776 0 0 1-3.126 6.262z"/><path d="M24.94 6.839a2.652 2.652 0 0 0-2.453-2.453 2.622 2.622 0 0 0-1.991.705 2.658 2.658 0 0 0-.841 1.935.625.625 0 0 0 1.25 0c0-.391.158-.754.444-1.021s.66-.399 1.053-.372a1.397 1.397 0 0 1 .206 2.755c-.549.123-.932.6-.932 1.159v1.502a.625.625 0 0 0 1.25 0V9.597a2.634 2.634 0 0 0 2.015-2.758zm-2.198 6.24a.63.63 0 0 0-.884 0 .623.623 0 0 0-.183.442.624.624 0 1 0 1.25.001.631.631 0 0 0-.183-.442zm-5.554 6.296H4a.625.625 0 0 0 0 1.25h13.188a.625.625 0 0 0 0-1.25zm.441 3.683a.63.63 0 0 0-.884 0 .63.63 0 0 0 0 .884.63.63 0 0 0 .884 0 .623.623 0 0 0 .183-.442.631.631 0 0 0-.183-.442zm-2.9-.183H4a.625.625 0 0 0 0 1.25h10.729a.625.625 0 0 0 0-1.25zm-1.604-7H4a.625.625 0 0 0 0 1.25h9.125a.625.625 0 0 0 0-1.25z"/></symbol><symbol id="icon-promotion" viewBox="0 0 32 32"><path d="M8.56 20.14a.626.626 0 1 0-.626-1.083.626.626 0 0 0 .626 1.083z"/><path d="M5.999 24.453l3.147 5.452a2.499 2.499 0 1 0 4.33-2.5l-1.875-3.248 1.624-.938a.626.626 0 0 0 .229-.854l-.813-1.408 11.971-2.348c1.389-.075 2.221-1.595 1.52-2.809l-2.077-3.598 1.327-2.011a.619.619 0 0 0 .019-.66l.002.003-1.25-2.165a.627.627 0 0 0-.542-.312l-.039.001h.002l-2.405.144-2.306-3.994a1.856 1.856 0 0 0-1.6-.937h-.024a1.86 1.86 0 0 0-1.579.865L7.495 13.537l-5.308 3.064a4.376 4.376 0 0 0-1.601 5.976 4.38 4.38 0 0 0 5.413 1.875zm6.395 3.578a1.25 1.25 0 1 1-2.165 1.25l-3.125-5.413 2.165-1.25 3.125 5.414zm-1.417-4.956l-.625-1.082 1.082-.625.625 1.082zM23.263 8.33l.864 1.496-.77 1.167-1.489-2.579zm-6.557-4.508a.613.613 0 0 1 .542-.3.612.612 0 0 1 .533.312l7.27 12.592a.625.625 0 0 1-.526.937c-.085.002-.125.017-.343.058l-7.69-13.319c.161-.208.182-.228.214-.28zm-1.046 1.34l7.225 12.514-10.904 2.139-3.315-5.742zM1.669 21.953a3.08 3.08 0 0 1-.419-1.559c0-1.115.599-2.153 1.563-2.709l4.871-2.813 3.125 5.412-4.871 2.813a3.13 3.13 0 0 1-4.269-1.144z"/><path d="M6.624 20.536a.626.626 0 0 0-.854-.229l-1.083.625a.626.626 0 0 1-.854-.229.626.626 0 0 0-1.083.625 1.877 1.877 0 0 0 2.561.686l1.082-.625a.626.626 0 0 0 .229-.854zM31.071 3.609l-3.483 1.938a.625.625 0 1 0 .608 1.092l3.482-1.938a.625.625 0 1 0-.608-1.092zm-.365 6.473l-2.415-.647a.625.625 0 0 0-.324 1.207l2.415.647a.625.625 0 1 0 .323-1.207zm-6.069-8.744l-.648 2.415a.625.625 0 0 0 1.208.324l.648-2.415a.626.626 0 0 0-1.207-.324z"/></symbol><symbol id="icon-recruitment" viewBox="0 0 32 32"><path d="M28.808 16.781c.281-.41.448-.917.448-1.464v-.504c0-1.45-1.18-2.63-2.63-2.63-.724 0-1.38.294-1.856.768-1.232-3.663-4.698-6.309-8.771-6.309S8.46 9.288 7.228 12.951a2.62 2.62 0 0 0-1.856-.768c-1.45 0-2.63 1.18-2.63 2.63v.504c0 .546.167 1.053.454 1.473l-.006-.009a4.028 4.028 0 0 0-3.192 3.935v1.258c0 .345.28.625.625.625h3.25a.625.625 0 0 0 0-1.25H1.248v-.633a2.775 2.775 0 0 1 2.772-2.772h2.958a9.206 9.206 0 0 0 1.249 2.963l-.022-.036-7.131 7.131a2.345 2.345 0 0 0 0 3.312c.457.457 1.056.685 1.656.685s1.2-.228 1.656-.685l3.931-3.931a.625.625 0 0 0-.884-.884L3.502 30.43a1.094 1.094 0 0 1-1.545-1.545l7-7a9.235 9.235 0 0 0 7.04 3.257c4.395 0 8.084-3.082 9.02-7.198h2.958a2.775 2.775 0 0 1 2.772 2.772v.633h-5.875a.625.625 0 0 0 0 1.25h6.5c.345 0 .625-.28.625-.625v-1.258a4.028 4.028 0 0 0-3.192-3.935zM6.754 15.314c0 .761-.619 1.38-1.38 1.38s-1.38-.619-1.38-1.38v-.501c0-.761.619-1.38 1.38-1.38s1.38.619 1.38 1.38v.501zM16 23.892c-4.411 0-8-3.589-8-8s3.589-8 8-8 8 3.589 8 8-3.589 8-8 8zm12.006-8.578c0 .761-.619 1.38-1.38 1.38s-1.38-.619-1.38-1.38v-.501c0-.761.619-1.38 1.38-1.38s1.38.619 1.38 1.38v.501z"/><path fill="var(--color1, #18bed0)" d="M16 9.142a6.758 6.758 0 0 0-6.75 6.75 6.73 6.73 0 0 0 2.193 4.975 6.726 6.726 0 0 0 4.556 1.774 6.724 6.724 0 0 0 4.629-1.841 6.733 6.733 0 0 0 2.121-4.908 6.758 6.758 0 0 0-6.75-6.75zm0 12.25a5.47 5.47 0 0 1-3.406-1.185c.664-1.256 1.958-2.047 3.406-2.047s2.742.791 3.406 2.047A5.475 5.475 0 0 1 16 21.392zm-1.317-5.799v-.486c0-.726.591-1.317 1.317-1.317s1.317.591 1.317 1.317v.486c0 .726-.591 1.317-1.317 1.317s-1.317-.591-1.317-1.317zm5.637 3.699a5.068 5.068 0 0 0-2.392-2.008 2.555 2.555 0 0 0 .638-1.691v-.486c0-1.415-1.152-2.567-2.567-2.567s-2.567 1.152-2.567 2.567v.486c0 .647.241 1.239.638 1.691a5.062 5.062 0 0 0-2.392 2.008 5.47 5.47 0 0 1-1.18-3.4c0-3.033 2.467-5.5 5.5-5.5s5.5 2.467 5.5 5.5a5.47 5.47 0 0 1-1.18 3.4zM9.992 24.827a.63.63 0 0 0-.884 0 .63.63 0 0 0 0 .884.63.63 0 0 0 .884 0 .63.63 0 0 0 0-.884zM16.013.001a.625.625 0 0 0-.625.625v2.127a.625.625 0 0 0 1.25 0V.626a.625.625 0 0 0-.625-.625zm.441 4.37a.629.629 0 0 0-.884 0 .623.623 0 0 0-.183.442.623.623 0 0 0 .625.625.623.623 0 0 0 .625-.625.631.631 0 0 0-.183-.442zm4.857-1.919a.625.625 0 0 0-.884 0l-1.099 1.099a.625.625 0 0 0 .884.884l1.099-1.099a.625.625 0 0 0 0-.884zm-8.629 1.106l-1.109-1.109a.625.625 0 0 0-.884.884l1.109 1.109a.622.622 0 0 0 .441.183h.002a.625.625 0 0 0 .441-1.067z"/></symbol><symbol id="icon-speech-bubble" viewBox="0 0 32 32"><path d="M16 7.875a.625.625 0 1 0 0 1.25.625.625 0 0 0 0-1.25zM5.625 19.125a.625.625 0 1 0 0-1.25.625.625 0 0 0 0 1.25z"/><path d="M21 1.625c-5.627 0-10.245 3.879-10.602 8.766C5.039 10.66 0 14.524 0 19.75c0 2.184.864 4.3 2.438 5.977a3.804 3.804 0 0 1-1.004 3.581.625.625 0 1 0 .442 1.067c1.782 0 3.5-.699 4.777-1.931 1.243.424 2.866.681 4.348.681 5.626 0 10.244-3.878 10.602-8.764 1.309-.058 2.67-.3 3.747-.667a6.892 6.892 0 0 0 4.777 1.931.625.625 0 0 0 .442-1.067 3.799 3.799 0 0 1-1.004-3.581c1.573-1.677 2.438-3.793 2.438-5.977 0-5.43-5.428-9.375-11-9.375zm-10 26.25c-1.475 0-3.156-.29-4.282-.738a.625.625 0 0 0-.692.159 5.646 5.646 0 0 1-2.805 1.665 4.993 4.993 0 0 0 .574-2.339c0-.492-.07-.968-.201-1.417l.009.036a.628.628 0 0 0-.153-.264c-1.418-1.46-2.199-3.317-2.199-5.227 0-4.404 4.465-8.125 9.75-8.125 4.991 0 9.375 3.47 9.375 8.125 0 4.48-4.206 8.125-9.375 8.125zm17.551-11.648a.626.626 0 0 0-.152.26l-.001.004a4.944 4.944 0 0 0-.192 1.381c0 .855.212 1.66.587 2.366l-.013-.027a5.639 5.639 0 0 1-2.805-1.665.625.625 0 0 0-.696-.157l.004-.002c-.976.388-2.368.657-3.682.722-.183-2.364-1.362-4.585-3.377-6.234h8.152a.625.625 0 0 0 0-1.25H16.304a11.672 11.672 0 0 0-4.651-1.232c.359-4.198 4.415-7.518 9.349-7.518 5.285 0 9.75 3.721 9.75 8.125 0 1.91-.781 3.766-2.199 5.227z"/><path d="M16 17.875H8.125a.625.625 0 0 0 0 1.25H16a.625.625 0 0 0 0-1.25zm0 3.75H5.625a.625.625 0 0 0 0 1.25H16a.625.625 0 0 0 0-1.25zm10.375-13.75H18.5a.625.625 0 0 0 0 1.25h7.875a.625.625 0 0 0 0-1.25z"/></symbol></defs></svg>