<svg aria-hidden="true" style="position: absolute; width: 0; height: 0; overflow: hidden;" version="1.1" xmlns="http://www.w3.org/2000/svg" xmlns:xlink="http://www.w3.org/1999/xlink">
  <defs>
    <symbol id="icon-dialog-icon" viewBox="0 0 32 32">
      <path d="M31.013 13.206c-0.604 1.164-1.406 2.144-2.371 2.931l-0.017 0.013v3.616c-0 0.345-0.28 0.625-0.625 0.625-0.172 0-0.329-0.070-0.442-0.183v0l-2.337-2.336c-0.69 0.188-1.483 0.296-2.301 0.296-0.002 0-0.003 0-0.005 0h-1.581c-5.009 0-9.084-4.075-9.084-9.084s4.075-9.084 9.084-9.084h1.582c5.009 0 9.084 4.075 9.084 9.084 0 1.451-0.332 2.838-0.987 4.122zM22.916 1.25h-1.582c-4.32 0-7.834 3.514-7.834 7.834s3.514 7.834 7.834 7.834h1.582c0.785 0 1.56-0.116 2.304-0.344 0.055-0.018 0.118-0.028 0.184-0.028 0.172 0 0.328 0.070 0.441 0.183v0l1.529 1.529v-2.413c0-0.196 0.092-0.381 0.249-0.499 1.987-1.496 3.126-3.779 3.126-6.262 0-4.32-3.514-7.834-7.834-7.834zM22.925 9.597v1.452c-0.007 0.34-0.284 0.613-0.625 0.613s-0.618-0.273-0.625-0.613v-1.502c0-0.001 0-0.002 0-0.003 0-0.564 0.395-1.036 0.924-1.155l0.008-0.001c0.677-0.151 1.134-0.767 1.086-1.463-0.052-0.692-0.6-1.241-1.288-1.292l-0.005-0c-0.031-0.002-0.067-0.004-0.104-0.004-0.367 0-0.702 0.143-0.95 0.376l0.001-0.001c-0.273 0.253-0.444 0.614-0.444 1.015 0 0.002 0 0.004 0 0.006v-0c0 0.004 0 0.008 0 0.012 0 0.345-0.28 0.625-0.625 0.625s-0.625-0.28-0.625-0.625c0-0.004 0-0.008 0-0.013v0.001c0.001-0.763 0.324-1.45 0.839-1.933l0.001-0.001c0.542-0.506 1.25-0.756 1.991-0.705 1.309 0.090 2.363 1.145 2.454 2.453 0.090 1.301-0.755 2.454-2.015 2.758zM22.3 12.896c0.172 0.001 0.329 0.070 0.442 0.183l-0-0c0.116 0.116 0.183 0.277 0.183 0.442s-0.067 0.326-0.183 0.442c-0.113 0.113-0.269 0.182-0.442 0.182h-0c-0.172-0-0.329-0.070-0.442-0.183l0 0c-0.113-0.113-0.183-0.27-0.183-0.442v-0c0-0.164 0.067-0.326 0.183-0.442 0.113-0.113 0.269-0.183 0.442-0.183h0zM17.629 23.942c-0.113 0.113-0.269 0.183-0.442 0.183h-0c-0.172-0.001-0.329-0.071-0.442-0.183l0 0c-0.113-0.113-0.182-0.27-0.183-0.442v-0c0-0.164 0.067-0.326 0.183-0.442 0.113-0.113 0.269-0.183 0.442-0.183h0c0.172 0 0.328 0.070 0.442 0.183l-0-0c0.113 0.113 0.183 0.269 0.183 0.442v0c-0 0.173-0.070 0.329-0.183 0.442l0-0zM4 22.875h10.729c0.345 0 0.625 0.28 0.625 0.625s-0.28 0.625-0.625 0.625h-10.729c-0.004 0-0.008 0-0.012 0-0.345 0-0.625-0.28-0.625-0.625s0.28-0.625 0.625-0.625c0.004 0 0.008 0 0.013 0h-0.001zM4 17.125c-0.004 0-0.008 0-0.012 0-0.345 0-0.625-0.28-0.625-0.625s0.28-0.625 0.625-0.625c0.004 0 0.008 0 0.013 0h9.124c0.004-0 0.008-0 0.012-0 0.345 0 0.625 0.28 0.625 0.625s-0.28 0.625-0.625 0.625c-0.004 0-0.008-0-0.013-0h-9.124zM17.812 20c0 0.345-0.28 0.625-0.625 0.625v0h-13.187c-0.004 0-0.008 0-0.012 0-0.345 0-0.625-0.28-0.625-0.625s0.28-0.625 0.625-0.625c0.004 0 0.008 0 0.013 0h13.187c0.345 0 0.625 0.28 0.625 0.625 0 0 0 0 0 0v0zM10.688 12.125h-6.313c-1.723 0-3.125 1.402-3.125 3.125v9.625c0 1.723 1.402 3.125 3.125 3.125h4.061c0.256 0 0.477 0.154 0.573 0.376l1.492 1.492 0.001-1.243c0-0.345 0.28-0.625 0.625-0.625h6.748c1.723 0 3.125-1.402 3.125-3.125v-4.313c0.007-0.34 0.284-0.613 0.625-0.613s0.618 0.273 0.625 0.613v4.313c0 2.412-1.963 4.375-4.375 4.375h-6.124l-0.001 2.125c-0.001 0.345-0.28 0.624-0.625 0.624-0.172 0-0.329-0.070-0.442-0.183v0l-2.567-2.567h-3.741c-2.412 0-4.375-1.963-4.375-4.375v-9.625c0-2.412 1.963-4.375 4.375-4.375h6.313c0.34 0.007 0.613 0.284 0.613 0.625s-0.273 0.618-0.613 0.625h-0.001z"></path>
    </symbol>
  </defs>
</svg>
