<svg aria-hidden="true" style="position: absolute; width: 0; height: 0; overflow: hidden;" version="1.1" xmlns="http://www.w3.org/2000/svg" xmlns:xlink="http://www.w3.org/1999/xlink">
<defs>
<symbol id="icon-conversation" viewBox="0 0 32 32">
<title>conversation</title>
<path d="M21.625 19.938c-0.345 0-0.625 0.28-0.625 0.625v4.313c0 1.723-1.402 3.125-3.125 3.125h-6.748c-0.345 0-0.625 0.28-0.625 0.625l-0.001 1.243-1.492-1.492c-0.099-0.223-0.318-0.375-0.573-0.375 0 0-0 0-0 0h-4.061c-1.723 0-3.125-1.402-3.125-3.125v-9.625c0-1.723 1.402-3.125 3.125-3.125h6.313c0.345 0 0.625-0.28 0.625-0.625s-0.28-0.625-0.625-0.625h-6.313c-2.412 0-4.375 1.963-4.375 4.375v9.625c0 2.412 1.963 4.375 4.375 4.375h3.741l2.567 2.567c0.113 0.113 0.269 0.183 0.442 0.183 0.086 0 0.168-0.017 0.243-0.049l-0.004 0.002c0.228-0.096 0.386-0.318 0.386-0.577v-0l0.002-2.125h6.123c2.412 0 4.375-1.963 4.375-4.375v-4.313c0-0.345-0.28-0.625-0.625-0.625z"></path>
<path d="M22.916 0h-1.582c-5.009 0-9.084 4.075-9.084 9.084s4.075 9.084 9.084 9.084h1.582c0.782 0 1.556-0.099 2.306-0.296l2.337 2.335c0.113 0.113 0.269 0.183 0.442 0.183 0.345 0 0.625-0.28 0.625-0.625v0-3.616c0.989-0.801 1.811-1.813 2.388-2.944 0.655-1.284 0.987-2.671 0.987-4.122 0-5.009-4.075-9.084-9.084-9.084zM27.624 15.346c-0.152 0.115-0.249 0.296-0.249 0.499v0 2.412l-1.529-1.529c-0.113-0.113-0.269-0.183-0.442-0.183-0.066 0-0.129 0.010-0.188 0.029l0.004-0.001c-0.744 0.229-1.519 0.345-2.304 0.345h-1.582c-4.32 0-7.834-3.514-7.834-7.834s3.514-7.834 7.834-7.834h1.582c4.32 0 7.834 3.514 7.834 7.834 0 2.483-1.139 4.766-3.126 6.262z"></path>
<path d="M24.94 6.839c-0.090-1.308-1.145-2.363-2.453-2.453-0.742-0.051-1.45 0.199-1.991 0.705-0.534 0.499-0.841 1.204-0.841 1.935 0 0.345 0.28 0.625 0.625 0.625s0.625-0.28 0.625-0.625c0-0.391 0.158-0.754 0.444-1.021s0.66-0.399 1.053-0.372c0.689 0.048 1.245 0.603 1.292 1.292 0.048 0.696-0.409 1.311-1.086 1.463-0.549 0.123-0.932 0.6-0.932 1.159v1.502c0 0.345 0.28 0.625 0.625 0.625s0.625-0.28 0.625-0.625v-1.452c1.259-0.304 2.104-1.457 2.015-2.758zM22.742 13.079c-0.116-0.116-0.277-0.183-0.442-0.183s-0.326 0.067-0.442 0.183c-0.113 0.113-0.183 0.269-0.183 0.442v0c0 0.165 0.067 0.326 0.183 0.443s0.277 0.182 0.442 0.182 0.326-0.066 0.442-0.182c0.113-0.114 0.183-0.27 0.183-0.442v-0c0-0.164-0.067-0.326-0.183-0.442zM17.188 19.375h-13.188c-0.345 0-0.625 0.28-0.625 0.625s0.28 0.625 0.625 0.625h13.188c0.345 0 0.625-0.28 0.625-0.625s-0.28-0.625-0.625-0.625zM17.629 23.058c-0.116-0.116-0.277-0.183-0.442-0.183s-0.326 0.067-0.442 0.183c-0.116 0.116-0.183 0.277-0.183 0.442s0.067 0.326 0.183 0.442c0.116 0.116 0.277 0.183 0.442 0.183s0.326-0.067 0.442-0.183c0.113-0.113 0.183-0.269 0.183-0.442v-0c0-0.164-0.067-0.326-0.183-0.442zM14.729 22.875h-10.729c-0.345 0-0.625 0.28-0.625 0.625s0.28 0.625 0.625 0.625h10.729c0.345 0 0.625-0.28 0.625-0.625s-0.28-0.625-0.625-0.625zM13.125 15.875h-9.125c-0.345 0-0.625 0.28-0.625 0.625s0.28 0.625 0.625 0.625h9.125c0.345 0 0.625-0.28 0.625-0.625s-0.28-0.625-0.625-0.625z"></path>
</symbol>
<symbol id="icon-promotion" viewBox="0 0 32 32">
<title>promotion</title>
<path d="M8.56 20.14c0.299-0.172 0.401-0.555 0.229-0.854s-0.555-0.401-0.854-0.229c-0.299 0.173-0.401 0.555-0.229 0.854s0.555 0.401 0.854 0.229z"></path>
<path d="M5.999 24.453l3.147 5.452c0.679 1.178 2.207 1.614 3.415 0.915 1.196-0.691 1.606-2.218 0.915-3.415l-1.875-3.248 1.624-0.938c0.299-0.173 0.401-0.555 0.229-0.854l-0.813-1.408c0.097-0.019 0.734-0.144 11.971-2.348 1.389-0.075 2.221-1.595 1.52-2.809l-2.077-3.598 1.327-2.011c0.065-0.097 0.104-0.216 0.104-0.345 0-0.115-0.031-0.223-0.085-0.315l0.002 0.003-1.25-2.165c-0.11-0.188-0.312-0.312-0.542-0.312-0.013 0-0.026 0-0.039 0.001l0.002-0-2.405 0.144-2.306-3.994c-0.334-0.579-0.932-0.929-1.6-0.937-0.008-0-0.016-0-0.024-0-0.645 0-1.231 0.321-1.579 0.865l-8.165 10.401-5.308 3.064c-2.088 1.205-2.811 3.883-1.601 5.976 1.105 1.914 3.435 2.667 5.413 1.875zM12.394 28.031c0.345 0.597 0.141 1.361-0.458 1.707-0.601 0.347-1.366 0.134-1.707-0.457l-3.125-5.413 2.165-1.25c3.617 6.265 3.067 5.313 3.125 5.414zM10.977 23.075l-0.625-1.082 1.082-0.625 0.625 1.082zM23.263 8.33l0.864 1.496-0.77 1.167-1.489-2.579zM16.706 3.822c0.168-0.274 0.434-0.303 0.542-0.3 0.107 0.001 0.373 0.034 0.533 0.312l7.27 12.592c0.237 0.41-0.051 0.925-0.526 0.937-0.085 0.002-0.125 0.017-0.343 0.058l-7.69-13.319c0.161-0.208 0.182-0.228 0.214-0.28zM15.66 5.162l7.225 12.514-10.904 2.139-3.315-5.742zM1.669 21.953c-0.263-0.447-0.419-0.985-0.419-1.559v-0c0-1.115 0.599-2.153 1.563-2.709l4.871-2.813 3.125 5.412-4.871 2.813c-1.492 0.861-3.407 0.348-4.269-1.144z"></path>
<path d="M6.624 20.536c-0.173-0.299-0.555-0.401-0.854-0.229l-1.083 0.625c-0.298 0.172-0.681 0.070-0.854-0.229s-0.555-0.401-0.854-0.229-0.401 0.555-0.229 0.854c0.514 0.891 1.662 1.205 2.561 0.686l1.082-0.625c0.299-0.173 0.401-0.555 0.229-0.854zM31.071 3.609l-3.483 1.938c-0.302 0.168-0.41 0.549-0.242 0.85s0.548 0.41 0.85 0.242l3.482-1.938c0.302-0.168 0.41-0.549 0.242-0.85s-0.548-0.41-0.85-0.242zM30.706 10.082l-2.415-0.647c-0.334-0.089-0.676 0.108-0.766 0.442s0.109 0.676 0.442 0.765l2.415 0.647c0.335 0.090 0.677-0.111 0.765-0.442 0.089-0.334-0.109-0.676-0.442-0.765zM24.637 1.338l-0.648 2.415c-0.089 0.334 0.108 0.676 0.442 0.766s0.676-0.108 0.766-0.442l0.648-2.415c0.089-0.333-0.108-0.676-0.442-0.766s-0.676 0.108-0.765 0.442z"></path>
</symbol>
<symbol id="icon-recruitment" viewBox="0 0 32 32">
<title>recruitment</title>
<path d="M28.808 16.781c0.281-0.41 0.448-0.917 0.448-1.464 0-0.001 0-0.002 0-0.003v0-0.501c0-1.45-1.18-2.63-2.63-2.63-0.724 0-1.38 0.294-1.856 0.768-1.232-3.663-4.698-6.309-8.771-6.309s-7.539 2.646-8.771 6.309c-0.476-0.475-1.132-0.768-1.856-0.768-1.45 0-2.63 1.18-2.63 2.63v0.501c0 0.001 0 0.002 0 0.003 0 0.546 0.167 1.053 0.454 1.473l-0.006-0.009c-1.821 0.384-3.192 2.002-3.192 3.935v1.258c0 0.345 0.28 0.625 0.625 0.625h3.25c0.345 0 0.625-0.28 0.625-0.625s-0.28-0.625-0.625-0.625h-2.625v-0.633c0-1.528 1.243-2.772 2.772-2.772h2.958c0.257 1.109 0.681 2.087 1.249 2.963l-0.022-0.036-7.131 7.131c-0.913 0.913-0.913 2.399 0 3.312 0.457 0.457 1.056 0.685 1.656 0.685s1.2-0.228 1.656-0.685l3.931-3.931c0.244-0.244 0.244-0.64 0-0.884s-0.64-0.244-0.884 0l-3.931 3.931c-0.426 0.426-1.119 0.426-1.545 0s-0.426-1.119 0-1.545l7-7c1.698 1.991 4.224 3.257 7.040 3.257 4.395 0 8.084-3.082 9.020-7.198h2.958c1.528 0 2.772 1.243 2.772 2.772v0.633h-5.875c-0.345 0-0.625 0.28-0.625 0.625s0.28 0.625 0.625 0.625h6.5c0.345 0 0.625-0.28 0.625-0.625v-1.258c0-1.933-1.371-3.551-3.192-3.935zM6.754 15.314c0 0.761-0.619 1.38-1.38 1.38s-1.38-0.619-1.38-1.38v-0.501c0-0.761 0.619-1.38 1.38-1.38s1.38 0.619 1.38 1.38v0.501zM16 23.892c-4.411 0-8-3.589-8-8s3.589-8 8-8 8 3.589 8 8-3.589 8-8 8zM28.006 15.314c0 0.761-0.619 1.38-1.38 1.38s-1.38-0.619-1.38-1.38v-0.501c0-0.761 0.619-1.38 1.38-1.38s1.38 0.619 1.38 1.38v0.501z"></path>
<path fill="#18bed0" style="fill: var(--color1, #18bed0)" d="M16 9.142c-3.722 0-6.75 3.028-6.75 6.75 0 1.932 0.816 3.677 2.121 4.908 0.022 0.024 0.046 0.047 0.072 0.067 1.202 1.101 2.802 1.774 4.556 1.774s3.355-0.673 4.556-1.774c0.026-0.021 0.050-0.043 0.073-0.067 1.305-1.232 2.121-2.976 2.121-4.908 0-3.722-3.028-6.75-6.75-6.75zM16 21.392c-1.285 0-2.469-0.443-3.406-1.185 0.664-1.256 1.958-2.047 3.406-2.047s2.742 0.791 3.406 2.047c-0.937 0.741-2.121 1.185-3.406 1.185zM14.683 15.593v-0.486c0-0.726 0.591-1.317 1.317-1.317s1.317 0.591 1.317 1.317v0.486c0 0.726-0.591 1.317-1.317 1.317s-1.317-0.591-1.317-1.317zM20.32 19.292c-0.573-0.914-1.411-1.61-2.392-2.008 0.397-0.452 0.638-1.044 0.638-1.691v-0.486c0-1.415-1.152-2.567-2.567-2.567s-2.567 1.152-2.567 2.567v0.486c0 0.647 0.241 1.239 0.638 1.691-0.981 0.397-1.819 1.094-2.392 2.008-0.739-0.936-1.18-2.118-1.18-3.4 0-3.033 2.467-5.5 5.5-5.5s5.5 2.467 5.5 5.5c0 1.282-0.441 2.464-1.18 3.4zM9.992 24.827c-0.116-0.116-0.277-0.183-0.442-0.183s-0.326 0.067-0.442 0.183c-0.116 0.116-0.183 0.277-0.183 0.442s0.067 0.326 0.183 0.442c0.116 0.116 0.277 0.183 0.442 0.183s0.326-0.067 0.442-0.183c0.116-0.116 0.183-0.277 0.183-0.442s-0.067-0.326-0.183-0.442zM16.013 0.001c-0.345 0-0.625 0.28-0.625 0.625v2.127c0 0.345 0.28 0.625 0.625 0.625s0.625-0.28 0.625-0.625v-2.127c0-0.345-0.28-0.625-0.625-0.625zM16.454 4.371c-0.113-0.113-0.269-0.183-0.442-0.183h-0c-0.172 0.001-0.329 0.070-0.442 0.183l0-0c-0.113 0.113-0.183 0.269-0.183 0.442v0c0 0.164 0.067 0.326 0.183 0.442 0.113 0.113 0.269 0.183 0.442 0.183h0c0.165 0 0.326-0.067 0.442-0.183 0.113-0.113 0.183-0.269 0.183-0.442v-0c0-0.164-0.067-0.326-0.183-0.442zM21.311 2.452c-0.244-0.244-0.64-0.244-0.884 0l-1.099 1.099c-0.244 0.244-0.244 0.64 0 0.884 0.122 0.122 0.282 0.183 0.442 0.183s0.32-0.061 0.442-0.183l1.099-1.099c0.244-0.244 0.244-0.64 0-0.884zM12.682 3.558l-1.109-1.109c-0.244-0.244-0.64-0.244-0.884 0s-0.244 0.64 0 0.884l1.109 1.109c0.113 0.113 0.269 0.183 0.441 0.183 0 0 0.001 0 0.001 0h-0c0 0 0 0 0.001 0 0.172 0 0.328-0.070 0.441-0.183v0c0.244-0.244 0.244-0.64 0-0.884z"></path>
</symbol>
<symbol id="icon-speech-bubble" viewBox="0 0 32 32">
<title>speech-bubble</title>
<path d="M16 7.875c-0.345 0-0.625 0.28-0.625 0.625s0.28 0.625 0.625 0.625 0.625-0.28 0.625-0.625-0.28-0.625-0.625-0.625zM5.625 19.125c0.345 0 0.625-0.28 0.625-0.625s-0.28-0.625-0.625-0.625-0.625 0.28-0.625 0.625 0.28 0.625 0.625 0.625z"></path>
<path d="M21 1.625c-5.627 0-10.245 3.879-10.602 8.766-5.359 0.269-10.398 4.133-10.398 9.359 0 2.184 0.864 4.3 2.438 5.977 0.311 1.283-0.067 2.643-1.004 3.581-0.345 0-0.625 0.28-0.625 0.625s0.28 0.625 0.625 0.625c0.172 0 0.329-0.070 0.442-0.183v0c1.782 0 3.5-0.699 4.777-1.931 1.243 0.424 2.866 0.681 4.348 0.681 5.626 0 10.244-3.878 10.602-8.764 1.309-0.058 2.67-0.3 3.747-0.667 1.276 1.232 2.994 1.931 4.777 1.931 0 0 0 0 0 0 0.345 0 0.625-0.28 0.625-0.625 0-0.173-0.070-0.329-0.183-0.442v0c-0.938-0.938-1.316-2.298-1.004-3.581 1.573-1.677 2.438-3.793 2.438-5.977 0-5.43-5.428-9.375-11-9.375zM11 27.875c-1.475 0-3.156-0.29-4.282-0.738-0.069-0.028-0.148-0.044-0.231-0.044-0.182 0-0.346 0.078-0.461 0.203l-0 0c-0.755 0.825-1.736 1.4-2.805 1.665 0.361-0.678 0.574-1.484 0.574-2.339 0-0.492-0.070-0.968-0.201-1.417l0.009 0.036c-0.030-0.103-0.083-0.192-0.153-0.264l0 0c-1.418-1.46-2.199-3.317-2.199-5.227 0-4.404 4.465-8.125 9.75-8.125 4.991 0 9.375 3.47 9.375 8.125 0 4.48-4.206 8.125-9.375 8.125zM28.551 16.227c-0.070 0.072-0.123 0.161-0.152 0.26l-0.001 0.004c-0.122 0.414-0.192 0.889-0.192 1.381 0 0.855 0.212 1.66 0.587 2.366l-0.013-0.027c-1.069-0.264-2.050-0.84-2.805-1.665-0.115-0.125-0.279-0.203-0.461-0.203-0.083 0-0.163 0.016-0.235 0.046l0.004-0.002c-0.976 0.388-2.368 0.657-3.682 0.722-0.183-2.364-1.362-4.585-3.377-6.234h8.152c0.345 0 0.625-0.28 0.625-0.625s-0.28-0.625-0.625-0.625h-10.072c-1.419-0.722-3.012-1.143-4.651-1.232 0.359-4.198 4.415-7.518 9.349-7.518 5.285 0 9.75 3.721 9.75 8.125 0 1.91-0.781 3.766-2.199 5.227z"></path>
<path d="M16 17.875h-7.875c-0.345 0-0.625 0.28-0.625 0.625s0.28 0.625 0.625 0.625h7.875c0.345 0 0.625-0.28 0.625-0.625s-0.28-0.625-0.625-0.625zM16 21.625h-10.375c-0.345 0-0.625 0.28-0.625 0.625s0.28 0.625 0.625 0.625h10.375c0.345 0 0.625-0.28 0.625-0.625s-0.28-0.625-0.625-0.625zM26.375 7.875h-7.875c-0.345 0-0.625 0.28-0.625 0.625s0.28 0.625 0.625 0.625h7.875c0.345 0 0.625-0.28 0.625-0.625s-0.28-0.625-0.625-0.625z"></path>
</symbol>
</defs>
</svg>
